<?xml version="1.0" standalone="no"?>
<!DOCTYPE svg PUBLIC "-//W3C//DTD SVG 20010904//EN"
 "http://www.w3.org/TR/2001/REC-SVG-20010904/DTD/svg10.dtd">
<svg version="1.0" xmlns="http://www.w3.org/2000/svg"
 width="1094.000000pt" height="1048.000000pt" viewBox="0 0 1094.000000 1048.000000"
 preserveAspectRatio="xMidYMid meet">

<g transform="translate(0.000000,1048.000000) scale(0.100000,-0.100000)"
fill="#000000" stroke="none">
<path d="M3434 10389 c-306 -213 -901 -835 -1728 -1803 -327 -383 -406 -479
-418 -504 -13 -27 -7 -36 221 -342 245 -328 261 -351 261 -379 -1 -21 -57 -79
-286 -295 -156 -149 -287 -280 -290 -292 -8 -31 41 -165 166 -454 11 -25 46
-108 79 -185 114 -267 378 -817 476 -990 13 -22 41 -74 62 -115 86 -162 204
-373 303 -540 57 -96 138 -233 180 -305 213 -362 642 -1027 940 -1458 79 -114
246 -347 407 -567 172 -233 733 -925 882 -1085 31 -34 89 -99 130 -145 40 -47
110 -123 155 -170 44 -47 106 -112 136 -145 182 -201 311 -325 338 -325 17 0
160 138 232 225 37 44 118 134 181 200 63 66 137 147 164 180 91 110 100 119
156 180 32 33 77 85 100 117 24 31 91 112 149 180 58 67 128 152 155 187 28
35 73 92 100 127 166 210 290 370 345 444 35 47 89 119 120 160 91 122 323
456 463 665 204 304 494 768 580 925 17 30 38 66 47 80 10 14 30 48 44 75 29
53 38 69 151 270 40 72 103 191 140 265 37 74 71 142 76 150 26 46 249 506
249 514 0 2 22 52 50 111 27 59 50 109 50 112 0 6 54 132 70 164 4 8 20 47 35
85 15 38 36 87 45 109 23 51 103 255 185 473 14 37 32 82 40 100 8 18 15 37
15 43 0 6 7 25 14 42 28 60 126 351 126 372 0 14 -92 114 -452 493 -60 64 -88
100 -88 117 0 17 68 95 258 295 273 289 311 333 312 365 0 12 -45 65 -119 140
-65 66 -197 201 -294 300 -96 99 -242 248 -323 330 -81 83 -163 168 -182 190
-19 22 -184 193 -366 380 -525 539 -667 685 -733 753 -34 35 -68 62 -75 60
-13 -5 -120 -161 -198 -292 -288 -483 -487 -720 -829 -985 -69 -54 -391 -267
-446 -296 -22 -12 -80 -47 -130 -79 -49 -31 -139 -81 -200 -110 -208 -100
-193 -96 -325 -96 -111 0 -126 2 -209 33 -109 42 -206 95 -267 148 -25 22 -78
64 -118 93 -85 63 -306 280 -393 386 -92 112 -186 247 -257 367 -35 60 -87
146 -116 193 -29 47 -66 108 -83 135 -39 64 -303 537 -330 590 -25 49 -46 75
-62 75 -6 0 -38 -19 -71 -41z m125 -876 c13 -34 44 -89 63 -111 8 -9 19 -28
26 -42 7 -14 27 -45 46 -70 19 -25 35 -50 35 -55 1 -6 11 -21 24 -35 38 -42
94 -114 98 -126 13 -37 274 -285 330 -314 13 -7 45 -32 71 -56 26 -24 52 -44
58 -44 6 0 30 -14 53 -30 59 -43 164 -112 202 -132 17 -9 37 -23 44 -32 8 -9
19 -16 26 -16 7 0 15 -7 19 -15 3 -8 14 -15 24 -15 11 0 25 -7 32 -15 6 -8 41
-30 76 -50 35 -20 64 -40 64 -45 0 -5 18 -14 40 -20 22 -6 40 -14 40 -19 0 -4
17 -15 38 -25 20 -9 64 -32 97 -50 33 -19 66 -35 73 -35 8 -1 25 -10 39 -21
14 -11 37 -20 51 -20 13 0 40 -10 59 -21 38 -24 93 -21 123 6 9 8 31 15 48 15
34 0 82 18 82 31 0 5 17 11 38 15 20 3 51 14 67 24 17 10 44 21 62 25 17 3 37
13 44 21 6 8 18 14 26 14 16 0 192 85 258 125 22 14 51 30 65 37 14 7 36 20
49 30 13 10 30 18 39 18 8 0 30 14 50 31 20 17 49 37 66 44 17 7 42 25 55 39
14 14 28 26 32 26 11 0 133 86 149 105 7 8 18 15 24 15 6 0 43 27 81 60 39 33
95 79 125 103 129 99 434 404 553 555 49 62 88 101 97 100 16 -4 16 19 6 -423
-5 -185 -12 -291 -36 -485 -5 -41 -9 -125 -9 -187 -1 -62 -10 -176 -21 -253
-12 -80 -20 -177 -18 -223 l3 -82 60 -8 c90 -13 150 -44 209 -108 109 -117
135 -187 143 -386 5 -130 4 -148 -17 -215 -46 -146 -70 -217 -84 -245 -8 -15
-19 -39 -26 -53 -33 -74 -69 -125 -141 -200 -48 -50 -149 -134 -181 -151 -101
-52 -167 -101 -178 -131 -20 -56 -39 -141 -40 -180 0 -20 -11 -79 -25 -130
-14 -51 -25 -109 -25 -129 0 -20 -7 -56 -16 -80 -8 -24 -19 -73 -24 -109 -4
-36 -14 -83 -20 -105 -6 -22 -16 -69 -20 -105 -5 -36 -16 -85 -24 -109 -9 -24
-16 -58 -16 -76 0 -17 -11 -65 -25 -105 -14 -40 -25 -90 -25 -109 0 -20 -9
-60 -20 -89 -11 -29 -20 -68 -20 -87 0 -20 -7 -52 -16 -73 -9 -20 -20 -64 -25
-98 -4 -33 -15 -74 -24 -90 -8 -16 -15 -45 -15 -65 0 -20 -9 -56 -19 -80 -11
-24 -22 -64 -24 -89 -3 -25 -12 -61 -20 -80 -8 -19 -18 -55 -22 -80 -4 -25
-16 -62 -26 -82 -11 -21 -19 -52 -19 -70 0 -19 -9 -51 -20 -73 -11 -22 -20
-53 -20 -70 0 -16 -9 -50 -20 -74 -11 -24 -20 -53 -20 -65 0 -11 -9 -39 -19
-62 -10 -23 -22 -60 -26 -84 -4 -24 -16 -61 -26 -84 -10 -23 -19 -52 -19 -66
0 -14 -9 -43 -20 -65 -11 -22 -20 -48 -20 -60 -1 -11 -9 -38 -20 -60 -11 -22
-19 -56 -20 -76 0 -20 -7 -42 -15 -49 -8 -7 -17 -28 -20 -49 -3 -20 -15 -55
-26 -79 -10 -23 -19 -55 -19 -70 0 -15 -9 -40 -20 -57 -11 -16 -20 -39 -20
-50 0 -11 -12 -42 -25 -70 -14 -27 -25 -60 -25 -72 0 -13 -9 -37 -20 -55 -11
-18 -20 -43 -20 -56 0 -12 -9 -40 -20 -62 -11 -22 -20 -45 -20 -51 0 -6 -8
-30 -19 -53 -26 -58 -59 -145 -67 -181 -4 -16 -15 -46 -26 -65 -10 -19 -18
-42 -18 -50 0 -9 -6 -24 -14 -35 -7 -11 -19 -36 -24 -55 -23 -73 -49 -138 -65
-163 -9 -15 -17 -34 -17 -44 0 -23 -46 -98 -52 -87 -15 24 -18 228 -25 1454
-13 2586 -20 3148 -37 3175 -14 22 -52 42 -62 33 -3 -4 20 -3495 30 -4406 6
-520 12 -464 -73 -644 -23 -48 -41 -93 -41 -100 0 -8 -4 -18 -9 -24 -7 -8 -34
-65 -98 -214 -14 -33 -39 -89 -68 -155 -8 -16 -16 -38 -19 -47 -10 -32 -44
-20 -72 24 -26 42 -138 215 -213 328 -19 30 -38 57 -41 60 -3 3 -10 14 -16 25
-6 11 -35 58 -65 104 -46 72 -55 94 -62 155 -12 94 -14 328 -22 2806 -4 1163
-10 2118 -14 2122 -12 14 -55 -17 -63 -47 -5 -17 -6 -1012 -2 -2278 4 -1323 3
-2247 -2 -2247 -9 0 -20 17 -49 80 -9 19 -34 72 -56 118 -21 46 -39 89 -39 96
0 7 -9 25 -20 39 -11 14 -20 31 -20 39 0 7 -9 30 -20 51 -11 20 -20 45 -20 56
0 10 -7 24 -15 31 -9 7 -20 32 -26 56 -6 24 -17 49 -25 55 -8 6 -14 21 -14 32
0 11 -11 43 -24 71 -56 120 -66 144 -66 163 0 10 -5 24 -10 29 -10 10 -34 68
-66 159 -8 22 -23 56 -34 76 -11 20 -20 43 -20 51 0 7 -9 30 -20 51 -11 20
-20 47 -20 59 0 12 -7 29 -15 38 -8 9 -19 38 -24 63 -4 26 -14 53 -20 61 -6 7
-18 36 -26 62 -15 56 -51 159 -65 189 -5 11 -12 36 -16 55 -3 19 -15 52 -25
72 -11 21 -19 45 -19 55 0 10 -9 35 -20 56 -11 20 -20 48 -20 62 0 15 -7 39
-15 55 -8 16 -20 53 -26 82 -6 29 -17 62 -23 73 -7 11 -16 40 -20 65 -4 25
-13 54 -20 65 -8 11 -17 41 -21 65 -4 25 -16 62 -26 82 -11 21 -19 52 -19 70
0 18 -9 53 -20 77 -11 24 -20 57 -20 75 0 17 -9 51 -20 75 -11 24 -20 60 -20
80 0 20 -9 54 -19 76 -10 23 -21 63 -25 90 -5 28 -15 66 -23 85 -8 19 -19 60
-23 90 -9 63 -43 220 -65 300 -8 30 -15 68 -15 85 0 16 -7 50 -16 75 -9 25
-20 74 -25 110 -4 36 -16 90 -26 120 -9 30 -16 75 -16 100 1 25 -6 70 -14 100
-29 107 -33 131 -31 174 1 53 -21 93 -60 106 -15 6 -34 15 -42 20 -8 6 -26 16
-40 23 -89 44 -227 166 -309 272 -62 81 -137 197 -146 226 -4 13 -12 30 -18
37 -34 43 -70 203 -69 312 1 116 20 277 40 332 45 125 92 171 235 232 51 22
189 22 222 0 33 -22 69 -10 61 20 -7 27 9 242 25 341 6 39 13 115 15 170 2 55
11 152 20 215 8 63 19 171 23 240 5 69 11 139 15 155 12 64 17 116 26 273 9
157 18 249 27 265 10 17 42 5 52 -20z"/>
<path d="M4602 8060 c-138 -38 -159 -47 -211 -95 -24 -22 -170 -174 -323 -337
-301 -320 -420 -429 -524 -479 -58 -28 -80 -33 -168 -37 l-101 -4 -90 43 c-65
32 -107 61 -151 105 -74 73 -80 97 -71 263 5 94 9 109 35 146 24 34 38 43 92
59 123 35 171 30 234 -29 29 -26 29 -28 23 -111 -3 -46 -3 -84 1 -84 28 1 82
75 82 112 0 56 -60 140 -134 190 -54 37 -139 38 -222 6 -75 -30 -169 -122
-185 -181 -6 -23 -17 -50 -25 -61 -9 -13 -14 -48 -14 -101 0 -44 -5 -98 -10
-120 -12 -46 4 -202 25 -250 49 -112 77 -163 141 -262 86 -131 202 -251 309
-322 42 -28 79 -51 83 -51 4 0 29 -11 57 -24 88 -43 207 -81 330 -107 22 -4
128 -8 236 -9 153 0 206 3 240 16 24 8 66 19 94 25 45 8 156 48 194 70 9 5 32
15 51 24 19 8 44 20 55 26 11 7 27 16 35 20 95 51 206 132 300 222 84 80 191
231 234 327 16 36 34 71 42 79 19 20 40 0 48 -47 23 -144 232 -373 500 -549
98 -65 284 -158 346 -173 25 -6 63 -16 85 -22 60 -16 369 -22 440 -8 33 6 83
16 110 21 28 6 70 17 95 26 25 8 63 20 85 27 48 14 232 103 240 116 4 6 13 10
21 10 15 0 94 59 183 137 60 53 158 180 176 227 7 17 19 48 28 68 10 21 17 42
17 48 0 5 9 27 20 47 11 21 20 47 20 58 1 11 9 45 20 75 32 91 25 294 -14 399
-22 58 -117 168 -179 209 -47 29 -58 32 -132 32 -128 -1 -218 -58 -245 -156
-18 -62 -6 -104 40 -149 34 -33 40 -36 46 -21 4 11 -1 24 -15 37 -28 26 -27
59 4 118 45 90 135 117 238 71 62 -27 90 -52 129 -112 26 -42 30 -55 26 -96
-12 -117 -131 -270 -259 -333 -41 -20 -90 -42 -110 -48 -120 -37 -274 18 -460
164 -60 48 -181 173 -329 341 -245 278 -325 341 -512 405 -32 10 -71 19 -88
19 -17 0 -40 5 -51 10 -13 7 -32 8 -57 1 -20 -5 -71 -17 -112 -26 -41 -10 -87
-26 -102 -36 -15 -10 -31 -19 -36 -19 -12 0 -91 -58 -144 -107 -26 -24 -51
-43 -56 -43 -6 0 -41 32 -78 71 -38 39 -85 80 -104 92 -37 23 -238 67 -335 72
-44 3 -88 -4 -163 -25z"/>
<path d="M3160 7694 c-14 -7 -33 -14 -44 -14 -25 0 -84 -37 -96 -61 -6 -10
-13 -61 -17 -112 -8 -131 8 -177 85 -238 31 -26 79 -59 105 -73 57 -32 140
-45 153 -25 5 8 9 62 10 121 2 126 -6 143 -60 140 -78 -5 -122 43 -133 148 -7
74 4 77 47 15 17 -25 37 -45 45 -45 19 0 55 48 55 74 0 28 -8 38 -51 64 -41
25 -63 26 -99 6z"/>
<path d="M7317 7698 c-17 -13 -21 -32 -19 -81 2 -26 5 -28 31 -22 34 7 51 -14
51 -64 0 -46 -9 -60 -52 -82 -47 -24 -63 -57 -73 -149 -6 -55 -4 -68 10 -80
24 -20 74 9 161 95 71 70 134 171 134 215 0 46 -44 100 -125 154 -43 28 -91
34 -118 14z"/>
<path d="M3275 7470 c-3 -5 3 -10 14 -10 12 0 21 5 21 10 0 6 -6 10 -14 10 -8
0 -18 -4 -21 -10z"/>
<path d="M5216 5664 c-43 -30 -66 -75 -66 -134 0 -35 7 -48 44 -88 43 -45 47
-47 98 -47 146 2 203 178 85 265 -53 39 -107 41 -161 4z"/>
<path d="M5196 3978 c-40 -35 -55 -79 -56 -168 0 -86 39 -107 140 -76 105 32
140 69 140 147 0 51 -16 79 -64 108 -53 33 -114 28 -160 -11z"/>
<path d="M5250 2331 c-102 -54 -96 -213 10 -255 22 -9 53 -16 68 -16 38 1 91
30 115 62 25 33 28 108 8 156 -27 64 -130 91 -201 53z"/>
</g>
</svg>
