<?xml version="1.0" standalone="no"?>
<!DOCTYPE svg PUBLIC "-//W3C//DTD SVG 20010904//EN"
 "http://www.w3.org/TR/2001/REC-SVG-20010904/DTD/svg10.dtd">
<svg version="1.0" xmlns="http://www.w3.org/2000/svg"
 width="1080.000000pt" height="925.000000pt" viewBox="0 0 1080.000000 925.000000"
 preserveAspectRatio="xMidYMid meet">

<g transform="translate(0.000000,925.000000) scale(0.100000,-0.100000)"
fill="#000000" stroke="none">
<path d="M1381 5990 c-103 -89 -441 -459 -590 -647 -39 -49 -44 -34 60 -176
33 -44 59 -87 59 -96 0 -8 -41 -53 -91 -99 -105 -99 -103 -77 -27 -257 212
-507 650 -1198 1052 -1660 98 -112 239 -255 251 -255 13 0 230 235 336 365
141 172 334 441 475 665 65 103 212 374 275 505 74 157 207 493 214 542 6 41
15 29 -133 185 -24 26 -32 40 -26 51 5 8 46 54 92 101 46 48 82 93 80 101 -2
8 -94 108 -205 222 -478 493 -452 468 -466 453 -8 -8 -44 -63 -81 -122 -82
-131 -135 -190 -240 -272 -88 -68 -230 -155 -285 -174 -83 -29 -160 -7 -267
79 -108 86 -174 175 -328 447 -32 56 -64 102 -72 102 -7 0 -45 -27 -83 -60z
m152 -297 c63 -89 88 -116 149 -165 80 -64 348 -227 348 -211 0 3 7 0 15 -7
11 -9 25 -8 69 9 189 71 427 237 561 393 27 31 53 54 57 52 5 -3 6 -31 4 -62
-3 -32 -11 -151 -17 -265 -10 -176 -14 -210 -28 -214 -32 -12 -51 -37 -51 -67
l0 -31 20 33 c22 35 41 43 33 13 -3 -11 2 -21 11 -24 22 -9 20 -34 -3 -47 -14
-7 -21 -23 -23 -53 -3 -40 -5 -42 -36 -45 -51 -5 -109 36 -217 152 -63 68
-113 112 -141 125 -75 36 -159 24 -217 -30 -20 -18 -21 -18 -56 10 -85 67
-214 58 -285 -21 -161 -178 -256 -258 -292 -244 -9 4 -14 22 -14 56 0 46 -2
50 -24 50 -16 0 -26 7 -29 22 -8 28 -2 34 17 19 11 -9 16 -9 21 0 6 8 10 7 16
-2 8 -12 11 -11 19 1 14 21 13 27 -10 48 -19 17 -19 22 -5 118 7 54 19 162 25
239 12 157 20 225 25 225 2 0 28 -35 58 -77z m-226 -630 c-3 -10 -5 -2 -5 17
0 19 2 27 5 18 2 -10 2 -26 0 -35z m759 -113 c9 -22 36 -57 61 -79 l46 -39 2
-124 c1 -68 4 -428 5 -801 l2 -678 -48 -114 c-26 -63 -52 -115 -56 -115 -12 0
-119 167 -134 209 -10 28 -13 210 -14 819 0 514 -3 782 -10 782 -18 0 -10 15
33 63 24 26 52 63 63 82 10 19 22 35 26 35 5 0 15 -18 24 -40z m751 18 c-3 -8
-6 -5 -6 6 -1 11 2 17 5 13 3 -3 4 -12 1 -19z m-1533 -34 c3 -8 2 -12 -4 -9
-6 3 -10 10 -10 16 0 14 7 11 14 -7z m36 -57 c0 -5 -4 -5 -10 -2 -5 3 -10 14
-10 23 0 15 2 15 10 2 5 -8 10 -19 10 -23z m28 -42 c-3 -3 -9 2 -12 12 -6 14
-5 15 5 6 7 -7 10 -15 7 -18z m552 -747 c0 -807 4 -766 -60 -618 -118 273
-195 497 -294 855 -29 102 -91 424 -83 431 3 3 32 -2 65 -10 33 -9 82 -16 110
-16 55 0 174 36 224 69 18 11 34 21 36 21 1 0 2 -330 2 -732z m493 647 c61 -7
124 4 234 40 22 7 22 6 9 -31 -8 -22 -24 -93 -36 -159 -43 -232 -107 -490
-167 -680 -102 -322 -198 -585 -214 -585 -5 0 -10 169 -10 418 -1 229 -4 563
-8 740 -3 178 -5 325 -4 326 2 2 32 -12 68 -30 41 -21 86 -35 128 -39z"/>
<path d="M2017 4512 c-22 -24 -21 -35 3 -57 41 -37 97 24 58 63 -17 17 -42 15
-61 -6z"/>
<path d="M2012 3978 c-17 -17 -15 -67 4 -75 29 -11 64 14 64 46 0 38 -41 56
-68 29z"/>
<path d="M2022 3438 c-28 -28 -3 -72 39 -66 30 4 47 33 33 56 -14 21 -55 27
-72 10z"/>
<path d="M6575 5550 c-9 -14 42 -80 61 -80 21 0 17 19 -12 57 -26 34 -38 40
-49 23z"/>
<path d="M5464 5378 c3 -13 6 -51 6 -85 0 -35 4 -63 10 -63 6 0 10 14 10 30 0
29 2 30 46 30 38 0 45 -3 40 -16 -3 -9 -6 -18 -6 -20 0 -2 -9 -4 -19 -4 -11 0
-23 -5 -26 -10 -10 -16 19 -22 50 -10 27 10 27 11 21 72 -11 91 -16 98 -83 98
-53 0 -55 -1 -49 -22z m100 -23 c4 -10 -3 -20 -20 -27 -20 -9 -28 -9 -41 4 -8
9 -12 21 -9 27 11 17 63 13 70 -4z"/>
<path d="M5654 5384 c3 -9 6 -47 6 -86 0 -51 3 -69 13 -66 6 3 13 17 15 31 3
24 7 27 43 27 36 0 40 -3 46 -30 11 -57 23 -41 23 29 0 93 -16 111 -96 111
-47 0 -55 -3 -50 -16z m114 -36 c4 -19 -29 -32 -58 -23 -11 4 -20 15 -20 26 0
17 6 20 37 17 26 -2 39 -8 41 -20z"/>
<path d="M5859 5393 c0 -5 0 -39 1 -78 1 -77 16 -108 26 -57 9 44 28 40 56
-10 26 -47 79 -88 114 -88 39 0 36 19 -5 30 -42 11 -91 59 -91 88 0 9 7 26 15
36 36 48 6 86 -66 86 -27 0 -49 -3 -50 -7z m101 -48 c0 -22 -4 -25 -35 -25
-31 0 -35 3 -35 25 0 22 4 25 35 25 31 0 35 -3 35 -25z"/>
<path d="M6055 5333 c3 -38 5 -77 5 -87 0 -27 17 -8 22 24 2 20 10 26 34 28
18 2 36 -3 43 -12 16 -19 6 -36 -19 -36 -10 0 -21 -4 -24 -9 -9 -14 22 -21 49
-11 28 10 31 32 16 109 -10 52 -22 61 -83 61 l-47 0 4 -67z m99 22 c7 -19 -28
-38 -54 -30 -11 4 -20 15 -20 26 0 15 7 19 34 19 21 0 36 -6 40 -15z"/>
<path d="M6265 5375 c-29 -28 -34 -88 -10 -122 17 -25 91 -41 108 -24 6 6 8
13 5 16 -5 6 -43 13 -75 14 -7 1 -13 8 -13 16 0 10 10 15 29 15 36 0 61 25 34
34 -10 3 -28 4 -40 2 -13 -3 -25 0 -29 5 -9 15 16 39 41 39 32 0 56 10 49 21
-11 19 -75 9 -99 -16z"/>
<path d="M6453 5323 c2 -76 17 -107 27 -62 9 37 26 32 54 -15 27 -47 79 -86
114 -86 38 0 33 19 -7 30 -39 10 -91 59 -91 84 0 7 7 21 15 32 18 23 19 66 3
82 -7 7 -36 12 -65 12 l-53 0 3 -77z m102 22 c0 -16 -8 -21 -37 -23 -35 -3
-38 -1 -38 23 0 24 3 26 38 23 29 -2 37 -7 37 -23z"/>
<path d="M6636 5393 c-9 -10 -7 -151 3 -157 14 -9 21 20 21 89 0 59 -8 83 -24
68z"/>
<path d="M6722 5318 c2 -49 7 -82 13 -81 6 1 11 14 13 28 3 22 8 25 48 25 42
0 44 -1 44 -30 0 -16 5 -30 10 -30 6 0 10 30 10 69 0 84 -16 101 -93 101 l-48
0 3 -82z m106 30 c3 -15 -4 -18 -37 -18 -35 0 -41 3 -41 21 0 17 5 20 37 17
27 -2 39 -8 41 -20z"/>
<path d="M7044 5376 c-32 -27 -37 -80 -11 -120 18 -27 83 -44 101 -26 14 14
-9 30 -46 30 -34 0 -52 30 -43 71 6 24 14 31 51 40 52 14 58 29 10 29 -22 0
-45 -9 -62 -24z"/>
<path d="M7215 5370 c-18 -36 -19 -89 -1 -113 16 -21 70 -39 92 -30 8 3 21 18
29 34 36 68 2 139 -65 139 -34 0 -42 -4 -55 -30z m95 -16 c30 -35 6 -104 -36
-104 -34 0 -55 59 -38 104 8 21 58 21 74 0z"/>
<path d="M7399 5396 c-2 -2 -3 -41 -1 -86 4 -102 25 -105 32 -4 l5 69 30 -3
c43 -5 55 -22 62 -85 8 -77 23 -72 23 8 0 85 -18 105 -93 105 -30 0 -56 -2
-58 -4z"/>
<path d="M7725 5375 c-31 -30 -34 -92 -7 -123 19 -22 80 -36 101 -23 16 10 3
20 -37 27 -48 8 -52 12 -52 52 0 43 14 62 46 62 12 0 29 3 38 6 29 11 16 24
-24 24 -30 0 -47 -7 -65 -25z"/>
<path d="M7890 5316 l0 -84 40 -4 c51 -5 76 5 85 32 10 31 -3 38 -21 11 -12
-16 -24 -21 -47 -19 l-32 3 -3 73 c-4 100 -22 91 -22 -12z"/>
<path d="M8053 5318 c1 -55 6 -83 15 -86 8 -2 12 7 12 27 0 30 1 31 44 31 41
0 45 -2 48 -27 2 -14 9 -28 16 -31 9 -3 12 13 12 58 0 81 -26 110 -99 110
l-49 0 1 -82z m105 40 c18 -18 15 -25 -13 -32 -30 -8 -65 8 -65 29 0 19 60 21
78 3z"/>
<path d="M8256 5384 c-19 -18 -20 -38 -6 -65 8 -15 21 -19 60 -19 80 0 78 -45
-2 -48 -75 -3 -67 -21 11 -24 57 -3 71 7 71 54 0 33 -24 48 -79 48 -34 0 -41
3 -41 20 0 17 7 20 39 20 44 0 71 8 71 21 0 16 -107 10 -124 -7z"/>
<path d="M8460 5380 c-25 -25 -27 -95 -4 -128 12 -18 25 -22 67 -22 48 1 51 2
32 16 -11 8 -26 12 -33 9 -16 -6 -52 12 -52 25 0 6 12 10 28 10 32 0 60 16 48
27 -8 9 -13 10 -52 12 -43 2 -27 35 20 41 55 7 60 30 7 30 -28 0 -48 -7 -61
-20z"/>
<path d="M4355 5166 c-128 -40 -217 -149 -250 -307 -19 -89 -19 -131 1 -227
29 -143 98 -237 213 -291 l56 -26 265 0 c242 0 268 -2 297 -20 37 -22 47 -16
95 49 23 33 28 49 28 100 0 34 4 67 9 74 5 9 29 12 82 10 l74 -3 5 -83 c5 -78
7 -86 35 -109 38 -31 87 -53 120 -53 l25 0 0 207 c0 234 -10 288 -65 364 -21
29 -51 55 -82 70 -46 23 -59 24 -275 27 -142 2 -228 0 -228 -6 0 -6 29 -41 65
-78 l65 -69 0 -227 c0 -137 -4 -228 -9 -228 -6 0 -54 45 -107 100 l-97 100
-106 0 c-121 0 -168 10 -210 46 -63 53 -79 191 -32 287 34 70 60 81 216 85
l130 4 98 96 c53 53 97 102 97 109 0 18 -458 17 -515 -1z m838 -415 c24 -24
-43 -40 -100 -25 -25 7 -31 29 -10 38 19 9 98 -1 110 -13z"/>
<path d="M5418 4943 c-46 -3 -68 -8 -68 -17 0 -7 29 -40 65 -74 l65 -61 0
-281 c0 -173 4 -280 10 -280 5 0 27 19 49 42 l39 42 134 2 c115 1 140 4 175
23 92 46 128 188 74 289 -17 34 -21 53 -16 83 8 46 -15 134 -46 173 -39 50
-65 56 -246 59 -92 2 -198 2 -235 0z m348 -194 c10 -17 -16 -29 -63 -29 -42 0
-60 11 -48 30 8 14 102 13 111 -1z m42 -231 c-3 -8 -29 -15 -61 -18 -31 -3
-62 -11 -69 -18 -19 -19 -28 -14 -28 18 l0 30 81 0 c60 0 80 -3 77 -12z"/>
<path d="M5916 4942 c-3 -5 20 -33 50 -63 85 -83 84 -78 84 -325 l0 -218 27
-28 c15 -15 34 -28 43 -28 9 0 34 23 55 52 36 46 41 59 45 122 l5 71 70 3 c86
4 95 -6 95 -96 0 -63 1 -66 39 -103 38 -36 112 -61 129 -44 4 4 6 109 4 233
-3 213 -5 230 -27 277 -28 61 -62 98 -118 128 -39 21 -56 22 -268 25 -127 2
-229 -1 -233 -6z m419 -185 c28 -21 9 -37 -45 -37 -50 0 -66 10 -56 35 7 19
76 20 101 2z"/>
<path d="M6587 4944 c-11 -11 -9 -612 2 -619 5 -3 83 -6 173 -6 183 -2 201 3
255 65 46 51 57 95 50 195 -7 99 -15 131 -31 131 -16 -1 -119 -133 -132 -170
-14 -42 -33 -52 -97 -48 l-52 3 -5 225 -5 225 -75 3 c-42 1 -79 0 -83 -4z"/>
<path d="M7096 4933 c-12 -29 6 -603 18 -610 19 -12 240 -15 299 -4 74 14 111
40 143 103 35 70 41 132 18 218 -10 38 -21 70 -25 70 -12 0 -120 -140 -135
-175 -16 -38 -39 -48 -100 -43 l-39 3 -5 225 c-3 124 -7 226 -8 228 -1 1 -38
2 -81 2 -65 0 -80 -3 -85 -17z"/>
<path d="M7791 4934 c-55 -21 -117 -84 -149 -153 -20 -43 -25 -69 -25 -140 -1
-149 52 -248 157 -297 48 -22 63 -24 239 -24 148 0 187 3 187 13 0 8 -38 50
-84 95 -75 74 -88 82 -122 82 -39 1 -39 1 -14 15 28 15 170 170 170 186 0 5
-64 9 -154 9 -153 0 -184 6 -157 33 7 7 53 13 109 15 l97 4 59 56 58 56 49
-51 49 -52 0 -283 0 -283 79 79 c79 78 79 79 86 142 4 35 10 64 14 64 5 0 16
-21 26 -46 31 -82 68 -138 131 -200 85 -84 167 -124 271 -131 51 -4 87 -1 101
6 12 6 70 50 128 97 l107 86 268 6 c314 6 323 8 371 101 60 115 19 261 -85
300 -16 6 -74 11 -130 11 -56 0 -109 5 -117 10 -30 20 14 30 135 30 l120 0 83
83 c45 45 82 86 82 90 0 11 -440 8 -482 -3 -21 -6 -51 -27 -71 -50 -85 -94
-69 -249 32 -317 28 -19 49 -23 125 -25 85 -2 122 -3 154 -7 6 0 12 -8 12 -16
0 -18 3 -18 -147 -19 l-122 -1 -76 -75 -75 -75 -25 26 -26 25 33 70 c29 61 32
79 32 159 0 78 -3 98 -28 153 -54 117 -135 162 -295 162 -119 0 -221 -11 -221
-23 0 -6 12 -24 27 -39 25 -27 26 -31 14 -61 -48 -118 -57 -233 -27 -324 29
-87 103 -157 199 -187 9 -3 17 -10 17 -17 0 -16 -115 -2 -168 22 -24 10 -57
28 -74 40 -34 25 -108 133 -108 159 0 10 16 34 35 54 42 45 58 100 53 187 -3
51 -10 75 -31 107 -50 76 -44 75 -472 79 -329 2 -386 0 -424 -13z m762 -185
c21 -34 2 -49 -63 -49 -60 0 -60 0 -60 29 0 35 11 41 69 38 28 -1 48 -8 54
-18z m545 -29 c49 -72 12 -202 -62 -216 -42 -7 -71 7 -96 49 -42 69 -9 200 54
209 45 7 81 -8 104 -42z"/>
<path d="M7464 4199 c3 -17 15 -51 25 -75 l20 -44 250 0 c156 0 251 4 251 10
0 18 -51 124 -63 132 -7 4 -119 8 -251 8 l-238 0 6 -31z"/>
<path d="M4430 4040 c-9 -16 -11 -104 -9 -326 l4 -303 -35 -35 c-18 -20 -31
-38 -28 -41 3 -3 30 6 62 20 31 14 61 25 67 25 5 0 23 10 39 22 24 18 49 22
142 28 126 7 152 17 209 77 49 51 66 87 79 167 25 160 -29 294 -144 353 -48
25 -62 27 -213 31 -159 4 -161 4 -173 -18z m331 -199 c25 -26 29 -37 29 -88 0
-67 -26 -119 -62 -128 -81 -18 -113 -23 -120 -19 -10 6 -11 248 -1 257 3 4 33
7 65 7 52 0 63 -4 89 -29z"/>
<path d="M5205 4051 c-73 -18 -135 -72 -176 -151 -18 -35 -24 -66 -27 -140 -5
-113 18 -188 77 -253 67 -75 71 -75 472 -79 l356 -3 41 29 c27 19 51 47 68 82
24 49 26 62 22 142 -3 48 -10 100 -17 116 -11 28 -12 28 -32 10 -35 -32 -119
-147 -119 -164 0 -9 -5 -21 -12 -28 -13 -13 -106 -16 -125 -4 -9 6 -13 67 -15
227 l-3 220 -240 2 c-132 0 -253 -2 -270 -6z m343 -138 l-3 -78 -163 -3 c-152
-2 -163 -1 -160 15 3 15 18 19 101 23 l97 5 57 58 c32 31 61 57 66 57 4 0 7
-35 5 -77z m2 -258 c0 -100 -4 -155 -10 -155 -6 0 -33 24 -61 54 -30 32 -63
57 -80 61 -27 6 -38 19 -21 27 4 2 39 40 77 86 38 45 76 82 82 82 10 0 13 -37
13 -155z m-247 -32 c-7 -2 -19 -2 -25 0 -7 3 -2 5 12 5 14 0 19 -2 13 -5z"/>
<path d="M6545 4055 c-5 -2 -22 -6 -37 -9 -15 -4 -43 -20 -62 -37 -97 -85 -84
-269 24 -329 40 -22 60 -25 168 -28 67 -2 122 -8 122 -12 0 -25 -33 -32 -119
-26 -130 11 -153 2 -246 -95 -42 -44 -74 -83 -71 -87 4 -3 110 -5 237 -4 250
2 259 4 313 61 55 57 65 194 21 270 -33 56 -83 75 -214 81 -79 3 -116 9 -119
18 -3 9 26 12 123 12 l128 0 88 87 c62 61 85 89 77 95 -12 7 -411 10 -433 3z"/>
<path d="M7138 4047 c-127 -36 -205 -168 -196 -331 7 -131 84 -250 177 -276
20 -5 126 -10 237 -10 198 0 200 0 234 -25 l34 -25 44 44 c54 53 61 84 55 234
-2 59 -1 131 2 160 l6 52 69 0 c100 0 104 -7 110 -219 4 -138 8 -170 23 -193
20 -28 85 -64 127 -70 l25 -3 3 224 c2 187 0 233 -14 274 -22 65 -95 141 -149
155 -22 6 -197 13 -390 16 -274 5 -360 3 -397 -7z m379 -109 l33 -32 0 -227
c0 -128 -4 -230 -9 -234 -5 -3 -42 31 -82 75 -59 64 -82 83 -118 94 -26 7 -38
15 -30 18 21 8 169 184 162 192 -4 3 -76 6 -160 6 -142 0 -154 1 -151 18 3 14
18 18 107 22 l104 5 41 47 c23 27 48 48 56 48 8 0 29 -14 47 -32z"/>
<path d="M8183 4053 c-68 -4 -78 -16 -43 -48 31 -28 32 -48 3 -111 -22 -50
-27 -73 -27 -154 -1 -88 1 -100 32 -162 37 -75 87 -123 147 -140 37 -11 360
-16 370 -6 3 2 -11 20 -30 38 -41 39 -42 47 -15 92 29 49 53 165 45 218 -17
120 -73 212 -151 250 -41 19 -67 24 -159 25 -60 1 -138 0 -172 -2z m259 -194
c11 -6 26 -26 34 -44 52 -125 -61 -260 -151 -182 -47 40 -47 160 0 211 26 28
79 35 117 15z"/>
<path d="M8628 3977 l72 -72 0 -282 c0 -155 4 -284 9 -287 5 -3 43 30 85 74
l76 80 0 60 c0 84 19 78 58 -18 59 -144 195 -265 332 -296 121 -28 124 -27
262 79 67 53 125 100 126 105 5 13 -12 13 -135 -6 -88 -14 -117 -15 -171 -5
-117 22 -193 76 -242 171 -26 51 -25 62 6 91 43 39 64 96 64 172 0 71 -14 112
-54 155 -44 50 -59 52 -318 52 l-242 0 72 -73z m372 -136 c0 -27 -3 -30 -50
-36 -54 -7 -80 4 -80 35 0 26 9 30 72 30 57 0 58 0 58 -29z"/>
</g>
</svg>
